PathFileType	4	(X/Y/Z)	D:\TRACE\v60_Jaco2_6-2-23\JustBodyDRS_Motion2_4-platform.trc
DataRate	CameraRate	NumFrames	NumMarkers	Units	OrigDataRate	OrigDataStartFrame	OrigNumFrames
100.00	100.00	      36	5	mm	100.00	6056	      6921
Frame#	Time	Left_Front			Right_Front			Left_Aft			Right_Aft			Post			
		X1	Y1	Z1	X2	Y2	Z2	X3	Y3	Z3	X4	Y4	Z4	X5	Y5	Z5	

6056	60.550	-790.12231	-15.75283	-644.57202	779.86993	-14.01846	-649.65204	-698.21796	24.10850	490.02759	743.99493	24.33750	499.16904	-4.45165	1271.36267	-1014.00629	
6057	60.560	-788.95477	-14.39632	-644.14349	781.12744	-12.59197	-649.18414	-696.97559	22.97984	490.50470	745.02081	23.31942	499.66061	-3.26713	1273.37927	-1010.92517	
6058	60.570	-787.91858	-12.86199	-643.88397	782.21564	-11.17735	-648.94238	-695.94092	22.06870	490.84866	745.92426	22.13181	500.04724	-2.25198	1275.95447	-1007.87817	
6059	60.580	-786.84454	-11.25177	-643.64569	783.20612	-9.69300	-648.79230	-694.82440	21.13674	491.29135	747.29956	21.22861	500.33911	-1.17520	1278.12085	-1004.97015	
6060	60.590	-785.75836	-9.75612	-643.20154	784.54980	-8.17902	-648.28296	-693.51514	20.01781	491.68262	748.04865	19.84892	500.78726	-0.07742	1280.36646	-1002.20367	
6061	60.600	-784.30756	-8.27938	-643.17090	785.48602	-6.62537	-647.85242	-692.67303	19.19114	492.02808	749.63141	19.06764	501.05411	1.37176	1282.66931	-999.11157	
6062	60.610	-783.26233	-6.97855	-642.58020	786.54828	-5.32712	-647.93530	-691.39636	17.88633	492.38861	750.43787	17.89934	501.35828	2.76491	1284.79797	-996.13202	
6063	60.620	-782.00989	-5.77726	-642.11768	787.70532	-3.69616	-647.36163	-690.43256	17.15195	492.69113	752.04956	17.10048	501.87625	3.54667	1287.34338	-993.18811	
6064	60.630	-781.16565	-4.11744	-642.07727	788.87354	-2.13896	-646.94617	-689.25830	15.90291	493.10452	752.77448	15.90044	502.28128	4.55076	1289.55627	-990.08069	
6065	60.640	-779.74915	-2.82354	-641.88910	790.06488	-0.26724	-646.62903	-688.20087	15.19113	493.29187	753.85730	14.69347	502.60999	5.47317	1292.00513	-986.70557	
6066	60.650	-779.00800	-0.37188	-641.34814	790.92902	0.95812	-646.60944	-687.14935	13.97049	493.84293	754.91223	13.57695	502.98715	7.02613	1294.00415	-983.24097	
6067	60.660	-777.92450	0.93437	-640.92566	792.08453	2.24957	-646.07324	-686.19562	13.18050	494.08255	755.78687	12.37605	503.20010	8.12857	1296.42249	-979.97119	
6068	60.670	-777.09924	2.25146	-640.62067	793.50226	3.82837	-645.63794	-684.95978	12.18790	494.59409	757.33740	11.41816	503.58823	8.97649	1298.81555	-976.38232	
6069	60.680	-775.93726	4.21644	-640.46179	794.03278	5.64363	-645.44867	-684.08392	11.00632	494.94135	757.93677	10.15689	504.12527	10.06812	1300.97107	-972.53345	
6070	60.690	-774.69305	5.49205	-639.70526	795.16583	7.14511	-644.85864	-683.00232	9.82871	495.31229	759.34204	9.15230	504.48178	11.33958	1303.69336	-968.97937	
6071	60.700	-773.73309	7.25695	-639.51038	796.48199	8.55876	-644.68732	-681.75519	8.65207	495.84335	760.38574	7.97122	504.78131	11.86793	1305.99719	-965.67664	
6072	60.710	-772.70532	8.74835	-639.21613	797.42438	10.39188	-644.17944	-680.94592	7.81353	496.02026	761.36438	6.85860	505.14124	12.99774	1308.36377	-961.78003	
6073	60.720	-771.89691	10.19721	-638.63239	798.47449	11.93366	-643.71039	-679.81860	6.28574	496.39798	762.42267	5.77130	505.59180	14.39080	1310.57495	-957.93860	
6074	60.730	-770.40399	12.17037	-638.48730	799.48242	13.56995	-643.45001	-678.90631	5.47516	496.64972	763.39771	4.65587	505.88181	15.62386	1312.92957	-954.15155	
6075	60.740	-769.47089	13.43403	-637.94922	800.32281	14.86250	-643.18457	-677.79102	4.48262	497.19012	764.53650	3.54821	506.48178	16.63713	1315.05310	-950.63013	
6076	60.750	-768.61774	15.14437	-637.66425	801.61737	16.48783	-642.75116	-676.69702	3.43336	497.42310	765.30695	2.36474	506.64386	17.55431	1317.35510	-947.34210	
6077	60.760	-767.80646	16.55372	-637.34698	802.42035	18.24999	-642.40979	-675.83789	2.13232	497.75391	765.97064	1.23614	506.88025	18.22704	1319.58374	-944.25079	
6078	60.770	-766.95343	17.95612	-636.86267	803.07660	19.53425	-642.05103	-675.04254	1.07896	498.15982	767.34540	0.26492	507.30487	18.89520	1321.70654	-941.27777	
6079	60.780	-765.83270	19.91289	-636.81873	804.22449	21.07004	-641.64197	-673.92688	0.02028	498.39862	768.15228	-1.04328	507.48743	20.18571	1324.00342	-938.11945	
6080	60.790	-764.63257	21.17603	-636.15308	805.40204	22.46399	-641.24609	-672.92682	-1.09157	498.77728	769.26141	-2.05577	507.88303	21.34383	1326.01489	-935.40753	
6081	60.800	-763.82739	22.54890	-635.71185	806.33527	24.16287	-640.79950	-672.01746	-2.06512	499.26163	770.30054	-3.10977	508.35681	22.43005	1328.39905	-932.26416	
6082	60.810	-763.11932	24.36542	-635.49652	806.92285	25.76595	-640.53223	-671.03217	-3.12966	499.45917	770.93152	-4.37042	508.76175	23.66145	1330.41467	-929.15472	
6083	60.820	-762.25592	25.83095	-635.02728	808.01410	27.21459	-639.93488	-670.34869	-4.29133	499.73792	771.92853	-5.38685	509.03250	24.43927	1332.84119	-925.81488	
6084	60.830	-761.41913	27.68496	-634.52667	808.66235	28.83137	-639.56879	-669.65753	-5.33676	500.08514	772.66217	-6.57642	509.31305	24.81369	1335.02368	-922.37006	
6085	60.840	-760.64368	28.96234	-633.96344	809.54382	30.26525	-639.29358	-668.58990	-6.28396	500.61115	773.45270	-7.77865	509.59796	25.98363	1337.31189	-918.32098	
6086	60.850	-759.61792	30.22427	-633.70062	810.27563	31.75701	-638.75940	-667.51660	-7.54651	500.99887	774.34729	-8.90455	509.92639	26.60116	1339.51819	-914.55579	
6087	60.860	-758.89667	32.04699	-633.54352	810.97803	33.37903	-638.38739	-667.00269	-8.42403	501.24030	774.98279	-9.93821	510.31430	26.99207	1341.62415	-910.76349	
6088	60.870	-758.25745	33.43225	-632.93530	811.75433	34.73533	-637.95728	-666.17853	-9.85449	501.51779	775.43658	-10.87217	510.62750	28.31218	1343.60632	-906.81805	
6089	60.880	-757.46692	34.59169	-632.39642	812.63910	36.25460	-637.50806	-665.47156	-10.67100	501.97607	776.19995	-12.01355	510.95718	28.59541	1345.68079	-902.87488	
6090	60.890	-756.69482	36.28455	-632.10785	813.18756	37.66075	-637.30487	-664.72839	-11.78972	501.95978	777.43469	-12.97185	511.23502	29.46207	1347.58545	-899.47528	
6091	60.900	-755.98566	37.76902	-631.76581	814.11829	38.96428	-636.91376	-664.12463	-12.66381	502.33853	777.82141	-14.08476	511.41986	29.95245	1349.69946	-896.59698	
